{"asset":{"generator":"glTF-Transform v4.2.1","version":"2.0"},"accessors":[{"type":"VEC3","componentType":5126,"count":1588295,"max":[27.90862274169922,35.918582916259766,29.212549209594727],"min":[-27.68501853942871,-37.156471252441406,-31.304283142089844],"bufferView":0,"byteOffset":0},{"type":"VEC3","componentType":5126,"count":1588295,"bufferView":0,"byteOffset":12},{"type":"SCALAR","componentType":5125,"count":1701714,"bufferView":1,"byteOffset":0}],"bufferViews":[{"buffer":0,"byteOffset":0,"byteLength":38119080,"byteStride":24,"target":34962},{"buffer":0,"byteOffset":38119080,"byteLength":6806856,"target":34963}],"buffers":[{"uri":"model.bin","byteLength":44925936}],"materials":[{"name":"x1","doubleSided":true,"pbrMetallicRoughness":{"baseColorFactor":[0.85,0.85,0.85,1],"roughnessFactor":0.5,"metallicFactor":0.05}}],"meshes":[{"name":"Mesh0","primitives":[{"attributes":{"POSITION":0,"NORMAL":1},"mode":4,"material":0,"indices":2}]}],"nodes":[{"name":"Node0","children":[1]},{"name":"Node1","mesh":0}],"scenes":[{"name":"Scene","nodes":[0]}],"scene":0}